<?xml version="1.0" encoding="UTF-8"?>
<svg xmlns="http://www.w3.org/2000/svg" viewBox="0 -18 100 168" width="512" height="864" shape-rendering="geometricPrecision">

  <!-- TOKEGOTCHI BASE — v3 -->
  <!-- 32x48 source resolution. FFVI-ish proportions. Named part groups for rigging. -->
  <!-- Every color region has light + mid + dark for pixel-art form. Horns replace hair. -->

  <defs>
    <clipPath id="head-clip"><circle cx="50" cy="38" r="23"/></clipPath>
    <clipPath id="shirt-clip"><rect x="32" y="64" width="36" height="42" rx="6"/></clipPath>
    <clipPath id="pants-clip-r"><rect x="36" y="106" width="11" height="32" rx="3"/></clipPath>
    <clipPath id="pants-clip-l"><rect x="53" y="106" width="11" height="32" rx="3"/></clipPath>
    <clipPath id="arm-clip-r"><rect x="25" y="65" width="9" height="40" rx="4"/></clipPath>
    <clipPath id="arm-clip-l"><rect x="66" y="65" width="9" height="40" rx="4"/></clipPath>
  </defs>

  <!-- ============ CAPE (cosmetic — z-behind everything) ============ -->
  <!-- Attached at the shoulders, so it bobs with HEAD_TRANSFORM. -->
  <g id="cape" transform="translate(0,1.5)">
    
  </g>

  <!-- ============ LEGS (animatable via _LEG_TRANSFORM) ============ -->
  <g id="r-leg" transform="translate(0,0)">
    <rect x="36" y="106" width="11" height="30" rx="3" fill="#C7A5D9"/>
    <ellipse cx="41.5" cy="138" rx="7" ry="4" fill="#C7A5D9"/>
    <ellipse cx="44" cy="139" rx="4" ry="2.5" fill="#A07AB8"/>
  </g>
  <g id="l-leg" transform="translate(0,-3.125)">
    <rect x="53" y="106" width="11" height="30" rx="3" fill="#C7A5D9"/>
    <ellipse cx="58.5" cy="138" rx="7" ry="4" fill="#C7A5D9"/>
    <ellipse cx="61" cy="139" rx="4" ry="2.5" fill="#A07AB8"/>
  </g>

  <!-- ============ PANTS (swappable) ============ -->
  <g id="pants">
    
  </g>

  <!-- ============ ARMS (with shading) ============ -->
  <!-- Arms animatable via _ARM_TRANSFORM (pivot at shoulder). Clip-paths removed so rotation works cleanly. -->
  <g id="r-arm" transform="rotate(-15 32 65)">
    <ellipse cx="32" cy="65" rx="7" ry="5" fill="#C7A5D9"/>
    <rect x="25" y="65" width="9" height="40" rx="4" fill="#C7A5D9"/>
    <rect x="25" y="65" width="3" height="40" fill="#DBC1E8"/>
    <rect x="31" y="65" width="3" height="40" fill="#A07AB8"/>
  </g>
  <g id="l-arm" transform="rotate(-15 68 65)">
    <ellipse cx="68" cy="65" rx="7" ry="5" fill="#C7A5D9"/>
    <rect x="66" y="65" width="9" height="40" rx="4" fill="#C7A5D9"/>
    <rect x="66" y="65" width="3" height="40" fill="#DBC1E8"/>
    <rect x="72" y="65" width="3" height="40" fill="#A07AB8"/>
  </g>

  <!-- ============ TORSO ============ -->
  <g id="torso">
    <rect x="32" y="62" width="36" height="48" rx="8" fill="#C7A5D9"/>
  </g>

  <!-- ============ SHIRT (swappable) ============ -->
  <g id="shirt">
    
  </g>

  <!-- ============ BELT (swappable, drawn on top of shirt) ============ -->
  <g id="belt">
    
  </g>

  <!-- ============ HEAD + HAIR + HAT (animated as a single unit via HEAD_TRANSFORM) ============ -->
  <g id="head" transform="translate(0,1.5)">
    <!-- base head -->
    <circle cx="50" cy="38" r="23" fill="#C7A5D9"/>
    <!-- shading clipped to head -->
    <g clip-path="url(#head-clip)">
      <ellipse cx="38" cy="26" rx="11" ry="8" fill="#DBC1E8"/>          <!-- top-left highlight -->
      <ellipse cx="60" cy="48" rx="14" ry="10" fill="#A07AB8"/>          <!-- bottom-right shadow -->
      <ellipse cx="50" cy="58" rx="18" ry="4" fill="#A07AB8"/>           <!-- chin shadow band -->
    </g>

    <!-- Eyes: sclera + iris + pupil + highlight -->
    <ellipse cx="42" cy="40" rx="6" ry="8" fill="#FFFFFF"/>
    <ellipse cx="58" cy="40" rx="6" ry="8" fill="#FFFFFF"/>
    <ellipse cx="42" cy="41" rx="3.6" ry="5.2" fill="#4A7BC5"/>
    <ellipse cx="58" cy="41" rx="3.6" ry="5.2" fill="#4A7BC5"/>
    <circle  cx="42" cy="42" r="1.5" fill="#1A1A2E"/>
    <circle  cx="58" cy="42" r="1.5" fill="#1A1A2E"/>
    <circle  cx="40" cy="38" r="1.5" fill="#FFFFFF"/>
    <circle  cx="56" cy="38" r="1.5" fill="#FFFFFF"/>

    <!-- Mouth -->
    <ellipse cx="50" cy="54" rx="5" ry="2" fill="#1A1A2E"/>

    <!-- Eyewear (cosmetic — z-above face, below hair) -->
    <g id="eyewear">
      
    </g>

    <!-- Hair (swappable via HAIR_STYLE) -->
    <g id="hair">
      
    </g>

    <!-- Hat (cosmetic — z-above hair) -->
    <g id="hat">
      
    </g>
  </g>

  <!-- ============ HELD ITEMS (front of everything) ============ -->
  <!-- Wrapped in the matching arm transforms so they swing with the hand. -->
  <g id="held-r" transform="rotate(-15 32 65)">
    <!-- COSMETIC: rubber-duck — small yellow duck in right hand. -->
<ellipse cx="29" cy="103" rx="6" ry="4" fill="#FFD040"/>
<circle cx="28" cy="98" r="3.5" fill="#FFD040"/>
<path d="M 30 96 L 35 97 L 30 99 Z" fill="#F09030"/>
<circle cx="27" cy="97" r="0.9" fill="#1A1A2E"/>
<ellipse cx="29" cy="103" rx="4" ry="1.5" fill="#FFE070"/>

  </g>
  <g id="held-l" transform="rotate(-15 68 65)">
    
  </g>

</svg>
